# xmcd CD database file
#
# Track frame offsets:
#	150
#	151479
#	159892
#	187291
#	195882
#	210793
#	241969
#
# Disc length: 3358 seconds
#
# Revision: 0
# Processed by: cddbd v1.5.2PL0 Copyright (c) Steve Scherf et al.
# Submitted via: CDex 1.70beta2
#
DISCID=4d0d1c07
DTITLE=Caribou - Tour CD 2007
DYEAR=2007
DGENRE=New Age
TTITLE0=Mix
TTITLE1=Seven Oaks
TTITLE2=Yo-Yo
TTITLE3=Stones
TTITLE4=Woodcarver Steiner
TTITLE5=Shim Shimmer
TTITLE6=Hummingbird
EXTD=YEAR: 2007
EXTT0=
EXTT1=
EXTT2=
EXTT3=
EXTT4=
EXTT5=
EXTT6=
PLAYORDER=
